HIERARCHY
ROOT Hips
{
	OFFSET 0.00 0.00 0.00
	CHANNELS 6 Xposition Yposition Zposition Yrotation Xrotation Zrotation
	JOINT LHipJoint
	{
		OFFSET	0.0000	0.0000	0.0000
		CHANNELS 3 Yrotation Xrotation Zrotation
		JOINT LeftUpLeg
		{
			OFFSET	1.0138	-0.0809	-0.0827
			CHANNELS 3 Yrotation Xrotation Zrotation
			JOINT LeftLeg
			{
				OFFSET	0.4110	-3.9095	0.3245
				CHANNELS 3 Yrotation Xrotation Zrotation
				JOINT LeftFoot
				{
					OFFSET	0.3810	-4.0555	-0.1470
					CHANNELS 3 Yrotation Xrotation Zrotation
					JOINT LeftToeBase
					{
						OFFSET	0.1396	-0.4462	1.3079
						CHANNELS 3 Yrotation Xrotation Zrotation
						End Site
						{
							OFFSET 0.0161 -0.0248 0.1809
						}
					}
				}
			}
		}
	}
	JOINT LowerBack
	{
		OFFSET	0.0000	0.7977	-0.3873
		CHANNELS 3 Yrotation Xrotation Zrotation
		JOINT Spine
		{
			OFFSET	0.0000	1.4131	0.1715
			CHANNELS 3 Yrotation Xrotation Zrotation
			JOINT Spine1
			{
				OFFSET	0.0000	1.4392	-0.1032
				CHANNELS 3 Yrotation Xrotation Zrotation
				JOINT LeftShoulder
				{
					OFFSET	0.2274	1.0382	0.4032
					CHANNELS 3 Yrotation Xrotation Zrotation
					JOINT LeftArm
					{
						OFFSET	1.4730	-0.2267	-0.0231
						CHANNELS 3 Yrotation Xrotation Zrotation
						JOINT LeftForeArm
						{
							OFFSET	1.6131	-1.8059	0.0081
							CHANNELS 3 Yrotation Xrotation Zrotation
							JOINT LeftHand
							{
								OFFSET	1.2197	-1.2423	1.6317
								CHANNELS 3 Yrotation Xrotation Zrotation
								JOINT LThumb
								{
									OFFSET	0.0109	-0.0753	0.4387
									CHANNELS 3 Yrotation Xrotation Zrotation
									End Site
									{
										OFFSET -0.2090 -0.0868 0.2097
									}
								}
								JOINT LeftFingerBase
								{
									OFFSET	0.1071	-0.1567	0.2607
									CHANNELS 3 Yrotation Xrotation Zrotation
									JOINT LeftHandFinger1
									{
										OFFSET	0.1706	-0.2492	0.6830
										CHANNELS 3 Yrotation Xrotation Zrotation
										End Site
										{
											OFFSET 0.0335 -0.1507 0.2071
										}
									}
								}
							}
						}
					}
				}
				JOINT Neck
				{
					OFFSET	0.0000	1.7498	0.2381
					CHANNELS 3 Yrotation Xrotation Zrotation
					JOINT Neck1
					{
						OFFSET	0.0000	0.5043	0.1959
						CHANNELS 3 Yrotation Xrotation Zrotation
						JOINT Head
						{
							OFFSET	0.0000	0.5044	0.1959
							CHANNELS 3 Yrotation Xrotation Zrotation
							End Site
							{
								OFFSET 0.0000 1.4798 -0.0693
							}
						}
					}
				}
				JOINT RightShoulder
				{
					OFFSET	-0.2274	1.0382	0.4032
					CHANNELS 3 Yrotation Xrotation Zrotation
					JOINT RightArm
					{
						OFFSET	-1.4730	-0.2267	-0.0231
						CHANNELS 3 Yrotation Xrotation Zrotation
						JOINT RightForeArm
						{
							OFFSET	-1.6131	-1.8059	0.0081
							CHANNELS 3 Yrotation Xrotation Zrotation
							JOINT RightHand
							{
								OFFSET	-1.2197	-1.2423	1.6317
								CHANNELS 3 Yrotation Xrotation Zrotation
								JOINT RThumb
								{
									OFFSET	-0.0109	-0.0753	0.4387
									CHANNELS 3 Yrotation Xrotation Zrotation
									End Site
									{
										OFFSET 0.2090 -0.0868 0.2097
									}
								}
								JOINT RightFingerBase
								{
									OFFSET	-0.1071	-0.1567	0.2607
									CHANNELS 3 Yrotation Xrotation Zrotation
									JOINT RightHandFinger1
									{
										OFFSET	-0.1706	-0.2492	0.6830
										CHANNELS 3 Yrotation Xrotation Zrotation
										End Site
										{
											OFFSET -0.0335 -0.1507 0.2071
										}
									}
								}
							}
						}
					}
				}
			}
		}
	}
	JOINT RHipJoint
	{
		OFFSET	0.0000	0.0000	0.0000
		CHANNELS 3 Yrotation Xrotation Zrotation
		JOINT RightUpLeg
		{
			OFFSET	-1.0138	-0.0809	-0.0827
			CHANNELS 3 Yrotation Xrotation Zrotation
			JOINT RightLeg
			{
				OFFSET	-0.4110	-3.9095	0.3245
				CHANNELS 3 Yrotation Xrotation Zrotation
				JOINT RightFoot
				{
					OFFSET	-0.3810	-4.0555	-0.1470
					CHANNELS 3 Yrotation Xrotation Zrotation
					JOINT RightToeBase
					{
						OFFSET	-0.1396	-0.4462	1.3079
						CHANNELS 3 Yrotation Xrotation Zrotation
						End Site
						{
							OFFSET -0.0161 -0.0248 0.1809
						}
					}
				}
			}
		}
	}
}
MOTION
Frames: 8
Frame Time: 0.0333333
0.0765 8.5292 0.0810 1.3935 -0.8929 -5.0708 0.0000 -0.0000 0.0000 12.3167 -16.1602 5.5280 12.3759 21.3501 6.6075 3.1760 -5.5856 -3.6937 0.0000 -0.4328 0.0000 0.0000 -0.0000 0.0000 -0.0797 0.8621 4.9657 -0.0975 1.7278 9.5550 -13.7900 3.4794 3.5218 2.8087 4.7399 -44.6353 19.2580 21.3683 1.4995 19.5328 3.3685 -22.9489 15.5266 -8.4051 29.7874 4.3580 18.3322 -2.9519 -7.8437 -1.3376 -4.0519 -0.3047 1.0453 -2.1695 -0.4273 1.0324 -2.1649 0.9915 0.5156 -5.9783 3.3347 4.5006 -3.6859 0.4015 -1.1232 28.5263 -16.8309 19.0779 -0.7043 -14.9905 13.0964 10.1197 -15.5266 -8.4051 -29.7874 -4.3580 18.3322 2.9518 7.8437 -1.3376 4.0519 0.0000 -0.0000 0.0000 -3.9602 2.8724 15.9265 -6.3206 9.4092 2.2746 2.3238 -11.8367 -13.3846 0.0000 -0.5217 0.0000 
0.0249 8.5119 0.1394 4.1458 -0.8930 -5.0858 0.0000 -0.0000 0.0000 12.0716 -16.7919 5.7777 10.6629 22.2038 5.9859 2.1499 -5.7492 -3.5262 -0.0000 -0.3866 -0.0000 0.0000 -0.0000 0.0000 0.3800 0.8366 4.9289 0.8165 1.6421 9.4577 -13.6151 3.5028 3.1591 3.3510 4.9169 -44.2753 19.6941 21.7694 1.6521 18.5084 3.0818 -23.1908 15.1899 -8.8704 29.5149 3.7759 18.9227 -3.4834 -7.8156 -1.3664 -4.0287 -1.1629 0.7674 -2.2986 -1.2923 0.7667 -2.2616 0.0439 0.5392 -5.6257 3.5101 4.4797 -3.8999 0.3747 -0.7736 28.8532 -16.9374 19.1804 -0.7372 -15.1350 13.3388 10.0156 -15.5656 -8.3501 -29.8490 -4.4245 18.2848 2.8912 7.8403 -1.3411 4.0491 0.0000 -0.0000 0.0000 -4.8397 3.5812 16.2374 -9.8271 9.1564 2.0330 4.1999 -12.4960 -13.5967 0.0000 -0.5217 -0.0000 
-0.0279 8.4960 0.1807 6.7441 -0.8930 -5.0984 0.0000 -0.0000 0.0000 11.7966 -17.4329 6.0003 9.1878 22.8435 5.4088 1.1889 -5.7107 -3.3416 -0.0000 -0.3650 -0.0000 0.0000 -0.0000 0.0000 0.8485 0.8158 4.8757 1.7475 1.5667 9.3320 -13.4479 3.5276 2.8180 4.0002 5.0906 -43.9029 19.9786 22.0293 1.7531 17.5448 2.5872 -23.3795 14.8790 -9.3642 29.2265 3.2410 19.4497 -3.9726 -7.7886 -1.3942 -4.0064 -1.9191 0.5022 -2.4471 -2.0548 0.5084 -2.3804 -0.8302 0.5232 -5.2939 3.7025 4.4583 -4.1166 0.3318 -0.3772 29.1918 -17.0734 19.3111 -0.7796 -15.2872 13.6575 9.8874 -15.5888 -8.2890 -29.9136 -4.4915 18.2403 2.8302 7.8370 -1.3445 4.0464 0.0000 -0.0000 0.0000 -5.6929 4.1756 16.6067 -11.1637 8.9491 2.1615 4.0461 -13.1618 -13.8862 -0.0000 -0.5209 -0.0000 
-0.0814 8.4819 0.2016 9.3000 -0.8932 -5.1049 0.0000 -0.0000 0.0000 11.4397 -18.1105 6.1527 7.6882 23.2518 4.8117 0.2714 -5.4018 -3.1257 -0.0000 -0.4735 0.0000 0.0000 -0.0000 0.0000 1.3445 0.8099 4.7850 2.7328 1.5211 9.1439 -13.3217 3.5478 2.5209 4.8937 5.2577 -43.5177 19.8663 21.9268 1.7131 16.6713 1.6207 -23.4276 14.6425 -9.9084 28.8931 2.8456 19.8213 -4.3358 -7.7659 -1.4175 -3.9876 -2.4342 0.2640 -2.6471 -2.5753 0.2650 -2.5557 -1.5541 0.4169 -4.9896 3.9125 4.4363 -4.3226 0.2351 0.1386 29.5315 -17.2799 19.5089 -0.8444 -15.4672 14.1318 9.7110 -15.5698 -8.2101 -29.9865 -4.5626 18.2022 2.7666 7.8333 -1.3483 4.0433 0.0000 -0.0000 0.0000 -6.4209 4.5702 17.0377 -11.1510 8.7878 2.4758 2.4282 -13.7985 -14.1897 -0.0000 -0.5209 0.0000 
-0.1345 8.4703 0.2011 11.8640 -0.8934 -5.1031 0.0000 -0.0000 0.0000 10.9840 -18.7784 6.2188 5.8253 23.3621 4.0635 -0.5757 -4.8299 -2.8709 -0.0000 -0.6373 -0.0000 0.0000 -0.0000 0.0000 1.9017 0.8308 4.6342 3.8402 1.5278 8.8534 -13.2812 3.5546 2.2611 6.1810 5.3933 -43.0968 19.1591 21.2769 1.4653 15.9559 -0.1024 -23.2445 14.5115 -10.5046 28.5052 2.6764 19.9571 -4.4942 -7.7512 -1.4326 -3.9755 -2.5535 0.0677 -2.9345 -2.6989 0.0433 -2.8281 -2.0496 0.1668 -4.7130 4.1184 4.4157 -4.5011 0.0496 0.8673 29.8415 -17.6059 19.8198 -0.9482 -15.7191 14.8066 9.4451 -15.5002 -8.1018 -30.0772 -4.6493 18.1674 2.6900 7.8276 -1.3542 4.0386 0.0000 -0.0000 0.0000 -6.9172 4.6776 17.5401 -11.1048 8.6565 2.6831 0.4380 -14.3247 -14.4034 0.0000 -0.5218 0.0000 
-0.1865 8.4611 0.1822 14.4394 -0.8937 -5.0950 0.0000 -0.0000 0.0000 10.4874 -19.4277 6.2067 3.8344 23.2224 3.2223 -1.1655 -4.0352 -2.5532 0.0000 -0.5153 -0.0000 0.0000 -0.0000 0.0000 2.5493 0.8851 4.4170 5.1295 1.5999 8.4457 -13.3430 3.5439 1.9936 7.8793 5.4356 -42.6173 17.9342 20.1311 1.0543 15.5118 -2.6297 -22.8466 14.4630 -11.0839 28.1185 2.7455 19.8549 -4.4355 -7.7462 -1.4377 -3.9713 -2.2361 -0.0811 -3.3197 -2.3845 -0.1544 -3.2125 -2.3235 -0.2392 -4.4493 4.2863 4.3993 -4.6533 -0.2333 1.8407 30.0896 -18.0742 20.2633 -1.1001 -16.0977 15.6194 9.0413 -15.4248 -7.9695 -30.1893 -4.7620 18.1249 2.5909 7.8179 -1.3640 4.0306 0.0000 -0.0000 0.0000 -7.1270 4.5223 18.1300 -11.0599 8.5315 2.7310 -1.9574 -14.7623 -14.4829 0.0000 -0.5218 0.0000 
-0.2369 8.4546 0.1496 17.0141 -0.8940 -5.0880 0.0000 -0.0000 0.0000 10.0804 -20.1537 6.1028 2.7513 23.0881 2.6214 -0.9903 -3.0392 -2.1273 0.0000 -0.0181 0.0000 0.0000 -0.0000 0.0000 3.2854 0.9703 4.1546 6.5967 1.7351 7.9492 -13.4631 3.5223 1.6894 9.7936 5.3139 -42.1112 16.5419 18.7988 0.6158 15.4630 -5.6470 -22.4244 14.4360 -11.5074 27.8499 2.9783 19.5998 -4.2257 -7.7492 -1.4346 -3.9738 -1.6177 -0.1887 -3.7752 -1.7681 -0.3260 -3.6823 -2.5033 -0.7618 -4.1748 4.4142 4.3867 -4.8151 -0.5955 2.9679 30.2865 -18.6553 20.8087 -1.2935 -16.6225 16.4343 8.4779 -15.4252 -7.8453 -30.3096 -4.8888 18.0680 2.4787 7.8062 -1.3761 4.0209 0.0000 -0.0000 0.0000 -7.0975 4.1549 18.8082 -11.1343 8.3723 2.5577 -4.5816 -15.0848 -14.4009 -0.0000 -0.5217 0.0000 
-0.2849 8.4511 0.1064 19.5846 -0.8942 -5.0886 0.0000 -0.0000 0.0000 9.9023 -21.0862 5.8623 2.7985 23.3505 2.2810 0.8257 -1.9898 -1.4860 0.0000 0.0080 -0.0000 0.0000 -0.0000 0.0000 4.0688 1.0786 3.8808 8.1588 1.9222 7.4192 -13.5619 3.5037 1.4038 11.6172 5.0241 -41.6863 15.3396 17.6235 0.2624 15.8533 -8.6400 -22.2334 14.3878 -11.6545 27.7965 3.2618 19.3124 -3.9662 -7.7577 -1.4259 -3.9808 -0.9169 -0.2648 -4.2576 -1.0691 -0.4654 -4.1895 -2.7540 -1.3548 -3.8820 4.5564 4.3723 -5.0383 -1.0026 4.0776 30.4984 -19.2721 21.3813 -1.5044 -17.2297 17.1588 7.8048 -15.5467 -7.7681 -30.4099 -4.9917 18.0065 2.3865 7.7988 -1.3837 4.0148 0.0000 -0.0000 0.0000 -6.9193 3.6509 19.5619 -11.1575 8.1284 2.1748 -7.4917 -15.2679 -14.1623 -0.0000 -0.5218 -0.0000 
